<?xml version="1.0" standalone="no"?>
<!DOCTYPE svg PUBLIC "-//W3C//DTD SVG 20010904//EN"
 "http://www.w3.org/TR/2001/REC-SVG-20010904/DTD/svg10.dtd">
<svg version="1.0" xmlns="http://www.w3.org/2000/svg"
 width="100.000000pt" height="100.000000pt" viewBox="0 0 100.000000 100.000000"
 preserveAspectRatio="xMidYMid meet">
<metadata>
Created by potrace 1.13, written by Peter Selinger 2001-2015
</metadata>
<g transform="translate(0.000000,100.000000) scale(0.100000,-0.100000)"
fill="#00bcd4" stroke="none">
<path d="M401 969 c-131 -26 -266 -130 -327 -254 -137 -276 13 -602 311 -680
343 -89 669 237 580 580 -65 249 -311 404 -564 354z m210 -45 c164 -49 264
-149 313 -313 42 -141 -5 -313 -114 -421 -240 -241 -647 -128 -736 205 -38
141 8 308 116 415 109 110 280 156 421 114z"/>
<path d="M480 771 c0 -25 -5 -30 -33 -35 -19 -3 -47 -20 -63 -37 -25 -26 -29
-38 -29 -84 0 -82 29 -105 183 -145 58 -15 82 -41 82 -88 0 -61 -35 -87 -115
-87 -53 0 -68 4 -89 24 -14 13 -29 39 -32 58 -5 24 -11 33 -26 33 -18 0 -20
-5 -15 -37 9 -54 37 -86 90 -103 41 -13 47 -19 47 -42 0 -21 5 -28 20 -28 15
0 20 7 20 29 0 25 4 29 39 35 78 12 124 104 89 180 -13 29 -69 59 -146 76
-109 25 -146 98 -82 162 28 28 35 30 85 26 64 -5 92 -26 101 -74 4 -24 12 -34
25 -34 15 0 19 7 19 31 0 41 -65 109 -104 109 -22 0 -26 4 -26 30 0 23 -4 30
-20 30 -15 0 -20 -7 -20 -29z"/>
</g>
</svg>
