<?xml version="1.0" standalone="no"?>
<!DOCTYPE svg PUBLIC "-//W3C//DTD SVG 20010904//EN"
 "http://www.w3.org/TR/2001/REC-SVG-20010904/DTD/svg10.dtd">
<svg version="1.0" xmlns="http://www.w3.org/2000/svg"
 width="100.000000pt" height="100.000000pt" viewBox="0 0 100.000000 100.000000"
 preserveAspectRatio="xMidYMid meet">
<metadata>
Created by potrace 1.13, written by Peter Selinger 2001-2015
</metadata>
<g transform="translate(0.000000,100.000000) scale(0.100000,-0.100000)"
fill="#00bcd4" stroke="none">
<path d="M406 890 c-63 -16 -153 -70 -197 -117 -22 -24 -55 -74 -72 -111 -29
-61 -32 -76 -32 -163 0 -90 2 -99 37 -171 45 -91 103 -147 196 -191 61 -29 76
-32 162 -32 86 0 101 3 162 32 93 44 151 100 196 191 35 72 37 81 37 172 0 91
-2 100 -37 172 -68 136 -188 217 -336 224 -42 2 -94 -1 -116 -6z m229 -57 c34
-12 71 -38 116 -83 80 -79 104 -136 104 -250 0 -114 -24 -171 -104 -251 -80
-80 -137 -104 -251 -104 -114 0 -171 24 -250 104 -80 81 -105 140 -105 251 0
102 26 168 93 241 54 59 94 83 172 106 57 16 159 10 225 -14z"/>
<path d="M451 678 c-49 -27 -66 -63 -70 -155 -6 -148 28 -207 119 -207 86 0
120 52 120 184 0 122 -31 177 -107 186 -21 3 -49 -1 -62 -8z m88 -45 c28 -22
41 -83 36 -154 -7 -91 -31 -129 -80 -129 -29 0 -63 45 -70 94 -22 142 42 247
114 189z"/>
</g>
</svg>
