<?xml version="1.0" standalone="no"?>
<!DOCTYPE svg PUBLIC "-//W3C//DTD SVG 20010904//EN"
 "http://www.w3.org/TR/2001/REC-SVG-20010904/DTD/svg10.dtd">
<svg version="1.0" xmlns="http://www.w3.org/2000/svg"
 width="100.000000pt" height="100.000000pt" viewBox="0 0 100.000000 100.000000"
 preserveAspectRatio="xMidYMid meet">
<metadata>
Created by potrace 1.13, written by Peter Selinger 2001-2015
</metadata>
<g transform="translate(0.000000,100.000000) scale(0.100000,-0.100000)"
fill="#00bcd4" stroke="none">
<path d="M438 876 c-268 -74 -276 -77 -319 -122 l-34 -35 -3 -274 c-3 -303 0
-320 58 -350 43 -22 677 -22 720 0 56 29 60 50 60 312 0 262 -2 272 -60 311
l-34 23 -338 -3 c-364 -3 -378 -1 -238 43 148 46 442 120 456 115 10 -4 14
-22 14 -61 0 -49 2 -55 21 -55 20 0 21 4 17 66 -5 73 -20 95 -67 93 -14 0
-128 -29 -253 -63z m411 -202 l31 -26 0 -239 0 -240 -25 -24 -24 -25 -331 0
-331 0 -24 25 -25 24 0 235 0 234 26 31 26 31 323 0 323 0 31 -26z"/>
</g>
</svg>