<?xml version="1.0" standalone="no"?>
<!DOCTYPE svg PUBLIC "-//W3C//DTD SVG 20010904//EN"
 "http://www.w3.org/TR/2001/REC-SVG-20010904/DTD/svg10.dtd">
<svg version="1.0" xmlns="http://www.w3.org/2000/svg"
 width="100.000000pt" height="100.000000pt" viewBox="0 0 100.000000 100.000000"
 preserveAspectRatio="xMidYMid meet">
<metadata>
Created by potrace 1.13, written by Peter Selinger 2001-2015
</metadata>
<g transform="translate(0.000000,100.000000) scale(0.100000,-0.100000)"
fill="#00bcd4" stroke="none">
<path d="M25 935 l-25 -24 0 -391 0 -391 25 -24 c13 -14 35 -25 49 -25 19 0
25 -6 28 -27 3 -27 5 -28 68 -28 63 0 65 1 68 28 l3 27 269 0 269 0 3 -27 c3
-27 5 -28 68 -28 63 0 65 1 68 28 2 16 9 27 18 27 8 0 26 11 39 25 l25 24 0
391 0 391 -25 24 -24 25 -451 0 -451 0 -24 -25z m923 -27 c17 -17 17 -759 0
-776 -17 -17 -879 -17 -896 0 -17 17 -17 759 0 776 17 17 879 17 896 0z"/>
<path d="M105 848 c-3 -7 -4 -159 -3 -338 l3 -325 395 0 395 0 0 335 0 335
-393 3 c-310 2 -394 0 -397 -10z m755 -328 l0 -300 -360 0 -360 0 0 127 c0
116 2 129 22 150 l21 23 -21 23 c-20 21 -22 34 -22 150 l0 127 360 0 360 0 0
-300z"/>
<path d="M421 747 c-53 -20 -111 -76 -137 -131 -33 -71 -31 -128 6 -203 89
-177 340 -175 425 3 73 154 -32 328 -204 340 -31 2 -71 -2 -90 -9z m61 -54 c2
-17 9 -28 18 -28 9 0 16 11 18 28 4 31 10 32 56 13 44 -18 52 -33 30 -57 -13
-15 -15 -22 -6 -31 9 -9 16 -7 31 6 24 22 39 14 57 -30 20 -47 18 -54 -16 -54
-23 0 -30 -4 -30 -20 0 -16 7 -20 30 -20 34 0 36 -8 14 -56 -21 -44 -31 -50
-52 -30 -12 10 -22 12 -32 6 -12 -7 -11 -12 4 -29 22 -24 14 -39 -30 -57 -46
-19 -52 -18 -56 14 -2 16 -9 27 -18 27 -9 0 -16 -11 -18 -27 -4 -32 -10 -33
-56 -14 -43 18 -52 33 -32 55 14 15 14 20 3 30 -11 9 -17 8 -27 -4 -7 -8 -16
-15 -21 -15 -12 0 -36 40 -44 72 -6 24 -4 27 22 30 37 4 38 32 1 36 -32 4 -33
10 -14 56 18 44 33 52 57 30 15 -13 22 -15 31 -6 9 9 7 16 -6 31 -21 24 -14
38 28 57 45 19 54 17 58 -13z"/>
<path d="M455 631 c-45 -20 -70 -60 -70 -112 0 -42 5 -53 33 -81 28 -28 39
-33 82 -33 43 0 54 5 82 33 28 28 33 39 33 82 0 42 -5 54 -31 81 -33 33 -92
46 -129 30z m100 -56 c16 -15 25 -36 25 -55 0 -19 -9 -40 -25 -55 -15 -16 -36
-25 -55 -25 -19 0 -40 9 -55 25 -16 15 -25 36 -25 55 0 19 9 40 25 55 15 16
36 25 55 25 19 0 40 -9 55 -25z"/>
</g>
</svg>
