<?xml version="1.0" standalone="no"?>
<!DOCTYPE svg PUBLIC "-//W3C//DTD SVG 20010904//EN"
 "http://www.w3.org/TR/2001/REC-SVG-20010904/DTD/svg10.dtd">
<svg version="1.0" xmlns="http://www.w3.org/2000/svg"
 width="100.000000pt" height="100.000000pt" viewBox="0 0 100.000000 100.000000"
 preserveAspectRatio="xMidYMid meet">
<metadata>
Created by potrace 1.13, written by Peter Selinger 2001-2015
</metadata>
<g transform="translate(0.000000,100.000000) scale(0.100000,-0.100000)"
fill="#00bcd4" stroke="none">
<path d="M744 989 c-4 -6 36 -53 92 -110 l98 -99 -464 -2 c-406 -3 -465 -5
-465 -18 0 -13 59 -15 465 -18 l464 -2 -99 -100 c-79 -79 -97 -102 -87 -112
10 -10 38 13 135 110 l122 122 -120 120 c-66 66 -123 120 -127 120 -4 0 -10
-5 -14 -11z"/>
<path d="M115 360 l-120 -120 122 -122 c97 -97 125 -120 135 -110 10 10 -8 33
-87 112 l-99 100 464 2 c406 3 465 5 465 18 0 13 -59 15 -465 18 l-464 2 98
99 c86 86 108 121 78 121 -4 0 -61 -54 -127 -120z"/>
</g>
</svg>
